<?xml version="1.0" standalone="no"?>
<!DOCTYPE svg PUBLIC "-//W3C//DTD SVG 20010904//EN"
 "http://www.w3.org/TR/2001/REC-SVG-20010904/DTD/svg10.dtd">
<svg version="1.0" xmlns="http://www.w3.org/2000/svg"
 width="260.000000pt" height="260.000000pt" viewBox="0 0 260.000000 260.000000"
 preserveAspectRatio="xMidYMid meet">
<metadata>
Created by potrace 1.14, written by Peter Selinger 2001-2017
</metadata>
<g transform="translate(0.000000,260.000000) scale(0.100000,-0.100000)"
fill="#000000" stroke="none">
<path d="M1150 2534 c-208 -38 -291 -64 -420 -130 -227 -116 -403 -291 -529
-524 -40 -75 -113 -265 -105 -273 3 -2 0 -16 -6 -31 -18 -47 -25 -126 -25
-271 0 -187 16 -283 75 -443 106 -285 333 -531 620 -671 42 -21 85 -40 96 -44
10 -3 51 -15 89 -27 124 -37 220 -49 380 -45 138 3 180 7 227 21 10 3 30 7 45
10 54 10 150 46 248 94 203 98 388 268 509 466 64 106 130 275 152 389 2 11 8
41 12 67 5 25 10 102 10 170 2 216 -31 361 -128 564 -85 176 -236 351 -402
465 -47 32 -89 59 -93 59 -4 0 -21 10 -38 22 -18 13 -33 22 -34 21 -2 -1 -24
7 -50 18 -54 24 -154 57 -190 63 -13 3 -33 8 -44 11 -12 4 -33 9 -47 11 -41 7
-324 13 -352 8z"/>
</g>
</svg>
